# xmcd
#
# Track frame offsets:
#	150
#	17499
#	38664
#	58823
#	77819
#	101675
#	121128
#	144440
#	164406
#	186351
#	203249
#
# Disc length: 2953 seconds
#
# Revision: 2
# Processed by: cddbd v1.5.2PL0 Copyright (c) Steve Scherf et al.
# Submitted via: EZCDAudioConverter 8.0.2.1
#
DISCID=910b870b
DTITLE=Various Artist - st. Tùng Giang. Chỉ Riêng Mình Em Hiểu
DYEAR=2005
DGENRE=
TTITLE0=Ngọc Liên - Chỉ Riêng Mình Em Hiểu
TTITLE1=Thế Sơn - Cuộc tình xưa
TTITLE2=Vân Quỳnh - Đêm cuối cùng bên anh
TTITLE3=Dương Triệu Vũ - Biết đến thuở nào
TTITLE4=Lưu Bích, Như Quỳnh, Khánh Hà - ANh đã quên mùa thu
TTITLE5=Trần Thái Hòa - Paris và em
TTITLE6=Trần Thu Hà - Tôi với trời bơ vơ
TTITLE7=Bằng Kiều - Biển vắng
TTITLE8=Nhật Trung - Chiều vắng em
TTITLE9=Thủy Tiên - Người tình người đẹp xinh xinh
TTITLE10=Hợp Ca Thúy Nga Paris - LK Quốc Dũng, Tùng Giang,Châu Kỳ
EXTD=
EXTT0=
EXTT1=
EXTT2=
EXTT3=
EXTT4=
EXTT5=
EXTT6=
EXTT7=
EXTT8=
EXTT9=
EXTT10=
PLAYORDER=
